<svg width="153" height="46" viewBox="0 0 153 46" fill="none" xmlns="http://www.w3.org/2000/svg">
<g clip-path="url(#clip0_75_406)" filter="url(#filter0_d_75_406)">
<path fill-rule="evenodd" clip-rule="evenodd" d="M52.1197 20.0961C52.0352 26.664 46.4039 31.9167 39.5417 31.8284C32.6795 31.7401 27.1851 26.3442 27.2696 19.7763C27.3542 13.2083 32.9856 7.95564 39.8477 8.04394C46.71 8.13225 52.2043 13.5281 52.1197 20.0961ZM54.2175 20.1231C54.1187 27.7999 47.5366 33.9394 39.5158 33.8362C31.4951 33.733 9.27373 34.0903 9.37252 26.4135C9.47131 18.7367 32.1175 1.31535 40.1382 1.41857C48.1589 1.52179 54.3163 12.4463 54.2175 20.1231ZM47.7875 13.8083C47.7773 14.6024 47.0964 15.2375 46.2667 15.2269C45.4369 15.2162 44.7726 14.5638 44.7828 13.7696C44.7931 12.9755 45.4739 12.3404 46.3037 12.351C47.1334 12.3617 47.7977 13.0141 47.7875 13.8083ZM35.3117 21.0003C35.9285 23.3178 38.3908 24.7201 40.8113 24.1324C43.2319 23.5447 44.6942 21.1895 44.0775 18.8721C43.4607 16.5546 40.9985 15.1523 38.5779 15.74C36.1573 16.3277 34.6949 18.6828 35.3117 21.0003ZM33.2788 21.4939C34.1816 24.8863 37.7859 26.9391 41.3292 26.0788C44.8727 25.2184 47.0132 21.7709 46.1104 18.3785C45.2076 14.9861 41.6033 12.9333 38.0599 13.7937C34.5165 14.654 32.3759 18.1014 33.2788 21.4939Z" fill="url(#paint0_linear_75_406)"/>
<g opacity="0.7" filter="url(#filter1_d_75_406)">
<path d="M57.7554 21.5733C57.7747 20.0695 57.8179 18.7353 57.885 17.5707L56.5694 17.3487C56.4879 17.1068 56.4262 16.839 56.3844 16.5455C56.3426 16.252 56.3235 15.9685 56.327 15.6951C56.3297 15.4868 56.3489 15.2591 56.3846 15.0122C57.2413 14.7237 58.3702 14.5233 59.7715 14.4112C61.1728 14.299 62.5407 14.2515 63.8753 14.2686C64.8713 14.2815 65.7263 14.3706 66.4404 14.536C67.1545 14.7015 67.7488 15.064 68.2234 15.6235C68.7046 16.1766 68.9382 17 68.9241 18.0937C68.9183 18.5429 68.8403 19.04 68.6901 19.5849C68.5399 20.1234 68.3344 20.6612 68.0736 21.1982C67.8328 21.69 67.5599 22.1585 67.2546 22.6038C66.956 23.0427 66.6451 23.4196 66.322 23.7345C66.5044 24.2317 66.6939 24.6866 66.8904 25.0994C67.0871 25.5056 67.39 26.001 67.7991 26.5858L69.1736 26.0272C69.6758 26.4699 69.9645 27.0531 70.0398 27.7768C70.0393 27.8159 69.8807 27.9994 69.564 28.3274C69.2537 28.6555 68.8494 28.9595 68.351 29.2396C67.8526 29.5131 67.2942 29.6459 66.6758 29.638C66.194 29.6318 65.7622 29.5416 65.3803 29.3674C65.0049 29.1933 64.6963 28.8931 64.4543 28.4667C64.2188 28.047 64.0332 27.5498 63.8973 26.9751C63.7615 26.4003 63.6678 25.8327 63.6165 25.2721L61.3913 25.1458C61.4434 25.6543 61.5115 26.1793 61.5957 26.7208C61.68 27.2558 61.7312 27.5787 61.7493 27.6897C61.8516 28.3356 61.9176 28.7759 61.9471 29.0107C61.6453 29.1891 61.279 29.3244 60.8481 29.4165C60.4237 29.5087 59.9901 29.5519 59.5475 29.5463C59.0397 29.5397 58.5491 29.465 58.0756 29.3222C57.9398 28.7475 57.8453 27.7436 57.7921 26.3105C57.7455 24.871 57.7333 23.2919 57.7554 21.5733ZM63.814 22.8233C64.0502 22.1752 64.2383 21.4712 64.3783 20.7112C64.5249 19.9448 64.6604 19.0317 64.7847 17.9721C64.5969 17.898 64.3502 17.8395 64.0447 17.7965C63.7393 17.7535 63.4433 17.7302 63.1569 17.7265C62.5059 17.7181 62.0174 17.7281 61.6915 17.7565C61.5884 20.2033 61.488 21.9371 61.3902 22.9581L63.814 22.8233ZM71.0868 15.4846C71.0941 14.9117 71.2857 14.4487 71.6613 14.0954C72.0435 13.7422 72.6447 13.5709 73.465 13.5814C74.2852 13.592 74.8786 13.7787 75.245 14.1415C75.618 14.5044 75.8008 14.9723 75.7934 15.5452C75.7892 15.8707 75.6715 16.1686 75.4401 16.4391C75.2152 16.7097 74.9195 16.924 74.5528 17.0821C74.1863 17.2336 73.8077 17.3069 73.4171 17.3018C72.994 17.2964 72.6013 17.2002 72.2391 17.0132C71.8835 16.8198 71.6 16.5818 71.3888 16.2991C71.1841 16.0165 71.0834 15.745 71.0868 15.4846ZM70.5364 21.0639C70.4559 20.7438 70.401 20.4534 70.3718 20.1926C70.3427 19.9253 70.33 19.6484 70.3337 19.3619L70.347 19.0886C70.4859 18.9146 70.6998 18.7416 70.9885 18.5695C71.2838 18.391 71.6243 18.2424 72.0099 18.1236C72.4021 18.005 72.8065 17.9483 73.2232 17.9537C74.1345 17.9654 74.7796 18.1788 75.1584 18.5939C75.5372 19.0089 75.7211 19.6494 75.7099 20.5152C75.7032 21.036 75.6196 21.7153 75.4591 22.5532C75.305 23.3911 75.1188 24.2058 74.9002 24.9973C74.6883 25.7824 74.5053 26.3433 74.3512 26.6799L74.3705 26.6996L75.8224 26.1909C76.08 26.4156 76.2722 26.6623 76.3989 26.9308C76.5322 27.1995 76.6161 27.5099 76.6506 27.8619C76.65 27.9075 76.5044 28.0944 76.2137 28.4227C75.9231 28.7445 75.5383 29.0456 75.0594 29.3259C74.5871 29.5998 74.0417 29.7328 73.4233 29.7248C72.7983 29.7168 72.2927 29.541 71.9065 29.1974C71.5268 28.854 71.3422 28.2721 71.3527 27.4519C71.365 26.4949 71.4042 25.4797 71.4701 24.4063C71.536 23.3328 71.6307 22.2923 71.7544 21.2847L70.5364 21.0639ZM83.1511 31.2075C83.5872 31.2131 83.9654 31.1692 84.2857 31.0756C84.3846 30.9792 84.4544 30.8662 84.4951 30.7365C84.5358 30.6133 84.5568 30.4964 84.5583 30.3857C84.5598 30.2686 84.5511 30.1805 84.5324 30.1217C84.5135 30.0694 84.4816 30.0201 84.4366 29.974C84.1638 29.9249 83.8419 29.8882 83.4711 29.8639C83.1067 29.8462 82.8888 29.8336 82.8173 29.8262C81.9129 29.7755 81.1781 29.7009 80.6129 29.6025C80.0478 29.4975 79.5655 29.283 79.166 28.9588C78.7666 28.6281 78.5711 28.1373 78.5794 27.4863C78.584 27.1348 78.7021 26.8075 78.9339 26.5044C79.1658 26.1949 79.4655 25.9253 79.8331 25.6956C79.0949 25.3801 78.5051 24.9135 78.0638 24.2958C77.6291 23.6717 77.418 22.8714 77.4306 21.8949C77.4431 20.9249 77.7005 20.1502 78.2028 19.5706C78.7116 18.9847 79.3322 18.576 80.0644 18.3445C80.7966 18.113 81.5403 18.0021 82.2954 18.0118C82.7706 18.018 83.2355 18.0695 83.69 18.1665C84.1445 18.2635 84.566 18.3992 84.9544 18.5734L84.5665 16.0878C84.9667 15.852 85.463 15.738 86.0554 15.7456C86.485 15.7511 86.8844 15.8279 87.2537 15.9759C87.6229 16.1239 87.9034 16.3326 88.0953 16.602C88.1075 16.6672 88.1126 16.7715 88.1108 16.9147C88.1039 17.4485 87.9986 18.0429 87.7949 18.6979C87.5977 19.3465 87.2622 19.8663 86.7884 20.2573C87.0167 20.7291 87.1274 21.2351 87.1204 21.7754C87.1102 22.5696 86.9478 23.3 86.6332 23.9666C86.3251 24.6333 85.8168 25.1736 85.1083 25.5877C84.3999 25.9953 83.4826 26.1919 82.3564 26.1774C82.0309 26.1732 81.6926 26.1493 81.3416 26.1057C81.3179 26.4309 81.3918 26.7574 81.5634 27.0852C82.4444 26.9273 83.1551 26.8485 83.6955 26.8489L84.3596 26.8477C85.258 26.8593 85.9376 26.9234 86.3983 27.04C86.9045 27.1702 87.2785 27.455 87.5202 27.8943C87.7685 28.3338 87.8886 28.866 87.8806 29.4909C87.868 30.4674 87.558 31.2838 86.9506 31.9401C86.3495 32.603 85.5717 33.0911 84.6171 33.4043C83.669 33.7177 82.6643 33.8675 81.6032 33.8539C80.6202 33.8412 79.7468 33.6639 78.9829 33.322C78.219 32.9802 77.7419 32.3652 77.5514 31.4773C77.7759 30.7314 78.1933 30.1703 78.8037 29.7941C79.6111 30.2928 80.3846 30.6511 81.124 30.8689C81.87 31.0869 82.5457 31.1997 83.1511 31.2075ZM82.6511 23.7688C83.1198 23.7749 83.3936 23.7491 83.4724 23.6915C83.6527 23.3422 83.7453 22.9821 83.75 22.611C83.755 22.2269 83.6717 21.8645 83.5003 21.5237C83.4166 21.451 83.2285 21.3933 82.9361 21.3504C82.6502 21.3077 82.338 21.2841 81.9994 21.2798C81.5763 21.2743 81.2928 21.2967 81.1489 21.347C80.9425 21.7024 80.8369 22.0624 80.8322 22.427C80.8275 22.798 80.9173 23.1508 81.1018 23.4852C81.2439 23.5782 81.4578 23.6493 81.7437 23.6986C82.0361 23.7414 82.3386 23.7648 82.6511 23.7688ZM90.9784 25.5558C90.5345 23.6164 90.142 21.9933 89.8007 20.6868C89.4595 19.3737 89.1835 18.5562 88.9728 18.2345L87.9972 18.1536C87.8148 17.6564 87.6892 17.046 87.6203 16.3224C87.7356 15.9658 87.9479 15.6592 88.2572 15.4028C88.5666 15.1398 88.9273 14.9426 89.3391 14.8112C89.751 14.6798 90.1653 14.6167 90.5819 14.6221C91.5324 14.6343 92.2363 15.0796 92.6938 15.958C92.9035 16.3578 93.0796 16.8387 93.2222 17.4004C93.3648 17.9557 93.4963 18.615 93.6167 19.3783C93.815 20.6635 93.9499 21.8177 94.0214 22.8409C94.0929 23.8575 94.1474 24.939 94.1847 26.0854L94.2125 26.9648L94.3589 26.9666C94.5263 26.6107 94.7152 25.8416 94.9258 24.6593C95.1363 23.477 95.3217 22.226 95.4819 20.9064C95.6422 19.5802 95.733 18.595 95.7544 17.9506L94.5264 17.7493C94.4397 17.4031 94.3851 17.0931 94.3625 16.8194C94.34 16.5456 94.3313 16.2134 94.3363 15.8228C94.4752 15.6554 94.7053 15.4825 95.0266 15.3043C95.348 15.1262 95.721 14.978 96.1457 14.8597C96.5705 14.7415 96.9911 14.685 97.4078 14.6904C97.9676 14.6976 98.4709 14.7985 98.9177 14.9931C99.371 15.1812 99.7288 15.4593 99.991 15.8273C100.26 16.1953 100.394 16.6431 100.394 17.1704L100.374 18.6742C100.653 19.8172 100.889 21.1583 101.084 22.6974C101.286 24.23 101.43 25.6806 101.517 27.049L101.624 27.0504C101.785 26.6878 101.971 25.9154 102.181 24.7331C102.398 23.5444 102.59 22.2935 102.757 20.9805C102.924 19.6609 103.014 18.6821 103.029 18.0443L101.879 17.8439C101.793 17.4977 101.738 17.1877 101.715 16.914C101.693 16.6402 101.684 16.3081 101.689 15.9175C101.822 15.7499 102.052 15.5771 102.38 15.399C102.707 15.2209 103.084 15.0727 103.508 14.9545C103.94 14.8363 104.364 14.7799 104.78 14.7853C105.633 14.7963 106.268 15.0258 106.686 15.4739C107.103 15.922 107.306 16.5985 107.294 17.5034C107.283 18.3627 107.126 19.4675 106.822 20.8179C106.518 22.1683 106.144 23.4363 105.699 24.6221C105.314 25.6589 104.938 26.5559 104.57 27.3129C104.202 28.0634 103.75 28.7999 103.213 29.5222C102.996 29.7408 102.711 29.8901 102.358 29.9702C102.012 30.0504 101.653 30.0881 101.282 30.0833C99.9998 30.0668 99.0558 29.8073 98.4503 29.3046L98.7397 27.3062L98.1473 24.0073C98.0087 23.1396 97.92 22.4483 97.881 21.9334L97.7542 21.922L97.7089 23.1618C97.4777 24.4349 97.1988 25.6164 96.8723 26.706C96.5523 27.7892 96.189 28.6961 95.7825 29.4266C95.5909 29.639 95.3286 29.7853 94.9955 29.8657C94.6623 29.9526 94.3232 29.9938 93.9782 29.9893C92.6437 29.9722 91.7061 29.7159 91.1656 29.2207L91.404 27.3876L90.9784 25.5558ZM111.22 23.5798C111.604 23.5848 112.027 23.6293 112.488 23.7133C112.956 23.7975 113.384 23.8974 113.774 24.0131L113.777 23.7104C113.78 23.5086 113.776 23.2839 113.767 23.0364C113.763 22.7889 113.752 22.626 113.734 22.5476C113.677 22.4362 113.509 22.3201 113.23 22.1993C112.959 22.0786 112.51 22.0142 111.885 22.0062C111.501 22.0013 111.103 22.045 110.692 22.1373C110.287 22.2233 109.836 22.3412 109.34 22.4911C109.078 22.045 108.869 21.6223 108.711 21.2231C108.56 20.8175 108.487 20.4129 108.493 20.0093C108.494 19.8856 108.506 19.762 108.527 19.6386C109.592 18.8319 110.961 18.4393 112.634 18.4609C113.558 18.4728 114.377 18.5875 115.091 18.805C115.804 19.0225 116.388 19.4337 116.843 20.0386C117.297 20.6434 117.517 21.496 117.503 22.5961C117.489 23.6703 117.349 24.7102 117.082 25.716C116.822 26.7153 116.688 27.2247 116.681 27.2441L118.105 26.6569C118.291 26.8612 118.454 27.1107 118.594 27.4055C118.74 27.6938 118.83 28.0271 118.864 28.4051C118.77 28.5993 118.568 28.8473 118.259 29.1494C117.949 29.4449 117.571 29.707 117.125 29.9356C116.68 30.1643 116.216 30.2755 115.734 30.2693C115.194 30.2624 114.786 30.0976 114.51 29.775C114.241 29.4525 114.109 29.0374 114.116 28.5296C114.12 28.2432 114.166 27.954 114.254 27.6622L113.962 27.5705C113.767 28.5967 113.37 29.2948 112.773 29.6647C112.176 30.0347 111.519 30.2151 110.803 30.2058C110.334 30.1998 109.884 30.0638 109.451 29.7978C109.018 29.5253 108.668 29.1366 108.401 28.6318C108.134 28.1206 108.005 27.5264 108.014 26.8494C108.028 25.7687 108.309 24.952 108.856 24.3991C109.404 23.8397 110.192 23.5666 111.22 23.5798ZM112.286 27.3145C112.449 27.2841 112.642 27.1954 112.865 27.0485C113.095 26.9017 113.299 26.7253 113.478 26.5193C113.656 26.3132 113.763 26.116 113.798 25.9276L113.742 25.6925C113.398 25.6425 113.03 25.615 112.64 25.61C112.308 25.6057 112.079 25.6288 111.955 25.6793C111.744 25.911 111.636 26.17 111.633 26.4564C111.63 26.6648 111.68 26.8542 111.781 27.0248C111.89 27.1955 112.058 27.2921 112.286 27.3145ZM119.168 22.2367C119.074 21.9555 119 21.6322 118.946 21.2669C118.892 20.9016 118.867 20.5465 118.872 20.2014C119.047 19.7219 119.345 19.3253 119.766 19.0117C120.193 18.6981 120.713 18.5453 121.325 18.5532C121.911 18.5607 122.38 18.7523 122.734 19.128C123.093 19.4972 123.408 20.0742 123.678 20.859C123.961 21.683 124.186 22.6561 124.354 23.7781C124.521 24.9002 124.633 26.1094 124.688 27.4058L124.971 27.4192C125.265 26.85 125.523 26.0362 125.745 24.9778C125.967 23.9128 126.087 22.9019 126.106 21.945L124.888 21.7145C124.807 21.3944 124.753 21.1138 124.723 20.8725C124.694 20.6247 124.681 20.3543 124.685 20.0614L124.698 19.7881C124.817 19.6203 125.015 19.4471 125.291 19.2683C125.566 19.0896 125.894 18.9408 126.273 18.8219C126.659 18.7032 127.06 18.6465 127.476 18.6519C129.156 18.6735 129.985 19.5273 129.963 21.2134C129.95 22.2159 129.758 23.2877 129.385 24.4289C129.012 25.5635 128.48 26.644 127.79 27.6703C127.106 28.6968 126.304 29.5394 125.384 30.1982C125.064 30.3243 124.63 30.3838 124.083 30.3767C123.79 30.373 123.462 30.3037 123.099 30.1688C122.736 30.0404 122.468 29.9067 122.294 29.7677L122.098 29.0816C121.649 27.4871 121.244 26.1146 120.881 24.964C120.518 23.8069 120.184 22.9464 119.879 22.3825L119.168 22.2367ZM130.916 24.5951C130.93 23.4688 131.132 22.4655 131.521 21.585C131.91 20.7045 132.502 20.0122 133.296 19.5081C134.097 18.9975 135.09 18.7498 136.275 18.7651C136.893 18.773 137.51 18.8559 138.127 19.0136C138.744 19.1647 139.265 19.4123 139.69 19.7564C140.083 20.0805 140.364 20.5073 140.533 21.0369C140.708 21.56 140.792 22.1406 140.784 22.7785C140.778 23.2017 140.737 23.6341 140.66 24.0759C140.58 24.2051 140.425 24.3756 140.194 24.5875C139.964 24.7929 139.694 24.9945 139.385 25.1924C139.077 25.3902 138.779 25.5427 138.491 25.6496C138.217 25.6657 137.934 25.6718 137.641 25.668C137.127 25.6614 136.606 25.6319 136.079 25.5795C135.553 25.5272 135.091 25.4692 134.695 25.4055C134.74 25.9595 134.903 26.4434 135.184 26.8572C135.465 27.271 135.918 27.4819 136.543 27.49C136.602 27.4907 136.696 27.4854 136.827 27.4741C137.224 27.4401 137.688 27.3419 138.217 27.1795C138.753 27.0106 139.286 26.8156 139.817 26.5945C140.061 26.8451 140.24 27.0948 140.354 27.3437C140.468 27.5926 140.545 27.9484 140.584 28.4112C140.38 28.6429 140.047 28.9251 139.587 29.2578C139.134 29.5905 138.58 29.8894 137.925 30.1545C137.271 30.413 136.589 30.5377 135.879 30.5285C134.811 30.5148 133.9 30.2459 133.145 29.7218C132.397 29.1913 131.833 28.4809 131.454 27.5905C131.081 26.6937 130.902 25.6952 130.916 24.5951ZM137.233 22.4301C137.143 22.3313 136.991 22.2544 136.777 22.1996C136.563 22.1382 136.339 22.106 136.105 22.103C135.916 22.1006 135.724 22.1144 135.528 22.1444C135.339 22.1746 135.224 22.2089 135.185 22.2474C134.958 22.6808 134.811 23.1737 134.746 23.7263L137.356 23.506L137.233 22.4301Z" fill="white"/>
</g>
</g>
<defs>
<filter id="filter0_d_75_406" x="-3.29346" y="0.17627" width="160.253" height="45.7913" filterUnits="userSpaceOnUse" color-interpolation-filters="sRGB">
<feFlood flood-opacity="0" result="BackgroundImageFix"/>
<feColorMatrix in="SourceAlpha" type="matrix" values="0 0 0 0 0 0 0 0 0 0 0 0 0 0 0 0 0 0 127 0" result="hardAlpha"/>
<feOffset dy="4"/>
<feGaussianBlur stdDeviation="2"/>
<feComposite in2="hardAlpha" operator="out"/>
<feColorMatrix type="matrix" values="0 0 0 0 0 0 0 0 0 0 0 0 0 0 0 0 0 0 0.25 0"/>
<feBlend mode="normal" in2="BackgroundImageFix" result="effect1_dropShadow_75_406"/>
<feBlend mode="normal" in="SourceGraphic" in2="effect1_dropShadow_75_406" result="shape"/>
</filter>
<filter id="filter1_d_75_406" x="52.0977" y="13.3613" width="92.7935" height="29.2522" filterUnits="userSpaceOnUse" color-interpolation-filters="sRGB">
<feFlood flood-opacity="0" result="BackgroundImageFix"/>
<feColorMatrix in="SourceAlpha" type="matrix" values="0 0 0 0 0 0 0 0 0 0 0 0 0 0 0 0 0 0 127 0" result="hardAlpha"/>
<feOffset dy="4"/>
<feGaussianBlur stdDeviation="2"/>
<feComposite in2="hardAlpha" operator="out"/>
<feColorMatrix type="matrix" values="0 0 0 0 0 0 0 0 0 0 0 0 0 0 0 0 0 0 0.25 0"/>
<feBlend mode="normal" in2="BackgroundImageFix" result="effect1_dropShadow_75_406"/>
<feBlend mode="normal" in="SourceGraphic" in2="effect1_dropShadow_75_406" result="shape"/>
</filter>
<linearGradient id="paint0_linear_75_406" x1="39.8736" y1="6.03608" x2="39.5158" y2="33.8361" gradientUnits="userSpaceOnUse">
<stop stop-color="#C6C4E8"/>
<stop offset="0.461458" stop-color="#685DFF"/>
<stop offset="1" stop-color="#3121FF"/>
</linearGradient>
<clipPath id="clip0_75_406">
<rect width="151.804" height="35.8409" fill="white" transform="translate(1.16797 0.17627) rotate(0.737288)"/>
</clipPath>
</defs>
</svg>
