<svg width="171" height="36" viewBox="0 0 171 36" fill="none" xmlns="http://www.w3.org/2000/svg">
<g clip-path="url(#clip0_71_401)">
<path fill-rule="evenodd" clip-rule="evenodd" d="M27.8333 18C27.8333 25.0877 22.0877 30.8333 15 30.8333C7.91234 30.8333 2.16666 25.0877 2.16666 18C2.16666 10.9123 7.91234 5.16666 15 5.16666C22.0877 5.16666 27.8333 10.9123 27.8333 18ZM30 18C30 26.2843 23.2843 33 15 33C6.71573 33 0 26.2843 0 18C0 9.71573 6.71573 3 15 3C23.2843 3 30 9.71573 30 18ZM23.2759 11.2759C23.2759 12.1329 22.5812 12.8276 21.7242 12.8276C20.8672 12.8276 20.1725 12.1329 20.1725 11.2759C20.1725 10.4189 20.8672 9.72418 21.7242 9.72418C22.5812 9.72418 23.2759 10.4189 23.2759 11.2759ZM10.4879 19.209C11.1556 21.7009 13.717 23.1797 16.2089 22.512C18.7008 21.8443 20.1796 19.2829 19.5119 16.791C18.8442 14.2991 16.2828 12.8203 13.7909 13.488C11.299 14.1557 9.82015 16.7171 10.4879 19.209ZM8.39503 19.7698C9.37244 23.4175 13.1219 25.5823 16.7696 24.6049C20.4174 23.6274 22.5821 19.878 21.6047 16.2302C20.6273 12.5825 16.8779 10.4177 13.2301 11.3952C9.58236 12.3726 7.41762 16.122 8.39503 19.7698Z" fill="url(#paint0_linear_71_401)"/>
<g opacity="0.7" filter="url(#filter0_d_71_401)">
<path d="M37.5469 22.8613C37.5469 22.5293 37.6087 22.194 37.7324 21.8555C37.8561 21.5169 38.0482 21.1979 38.3086 20.8984C39.2591 21.3151 40.0859 21.6341 40.7891 21.8555C41.4987 22.0768 42.2279 22.1875 42.9766 22.1875C43.1133 22.1875 43.2533 22.1745 43.3965 22.1484C43.5462 22.1224 43.6634 22.0866 43.748 22.041C43.7806 21.9694 43.8066 21.8783 43.8262 21.7676C43.8457 21.6504 43.8555 21.556 43.8555 21.4844C43.8555 21.1654 43.7025 20.8919 43.3965 20.6641C43.0905 20.4362 42.6868 20.2083 42.1855 19.9805L41.8438 19.8145C40.8672 19.3132 40.0827 18.8639 39.4902 18.4668C38.9043 18.0632 38.4062 17.5358 37.9961 16.8848C37.5924 16.2272 37.3906 15.4232 37.3906 14.4727C37.3906 13.0794 37.778 11.9629 38.5527 11.123C39.334 10.2832 40.5742 9.86328 42.2734 9.86328C43.7253 9.86328 44.8743 9.95117 45.7207 10.127C46.0723 10.3353 46.3783 10.5534 46.6387 10.7812C46.9056 11.0026 47.1595 11.2728 47.4004 11.5918C47.4004 12.0475 47.3548 12.5423 47.2637 13.0762C47.179 13.6035 47.0586 14.0885 46.9023 14.5312C46.7526 14.974 46.5898 15.293 46.4141 15.4883C46.2643 15.5599 46.0983 15.6152 45.916 15.6543C45.7337 15.6868 45.5091 15.7031 45.2422 15.7031C44.9622 15.7031 44.7344 15.6836 44.5586 15.6445C44.3828 15.6055 44.2201 15.5404 44.0703 15.4492L43.7676 13.418C43.39 13.3138 42.9896 13.2389 42.5664 13.1934C42.1432 13.1413 41.8568 13.1185 41.707 13.125C41.4661 13.2357 41.3001 13.3919 41.209 13.5938C41.1243 13.7891 41.082 14.0234 41.082 14.2969C41.082 14.5898 41.1602 14.8438 41.3164 15.0586C41.4792 15.2669 41.6745 15.4395 41.9023 15.5762C42.1302 15.7129 42.4232 15.8659 42.7812 16.0352L43.2109 16.25C44.1419 16.7383 44.8743 17.1647 45.4082 17.5293C45.9421 17.8939 46.388 18.3561 46.7461 18.916C47.1107 19.4694 47.293 20.14 47.293 20.9277C47.293 21.8457 47.0521 22.6367 46.5703 23.3008C46.0885 23.9583 45.4701 24.4336 44.7148 24.7266C44.3047 24.8893 43.8522 25.0065 43.3574 25.0781C42.8626 25.1497 42.2897 25.1855 41.6387 25.1855C41.196 25.1855 40.7207 25.1302 40.2129 25.0195C39.7051 24.9089 39.2103 24.7135 38.7285 24.4336C38.2533 24.1536 37.8724 23.7793 37.5859 23.3105C37.5599 23.1868 37.5469 23.0371 37.5469 22.8613ZM48.4355 19.3262C48.4355 18.1999 48.6243 17.194 49.002 16.3086C49.3796 15.4232 49.9622 14.7233 50.75 14.209C51.5443 13.6882 52.5339 13.4277 53.7188 13.4277C54.1224 13.4277 54.5846 13.4538 55.1055 13.5059C55.6328 13.5514 56.1374 13.623 56.6191 13.7207L56.8145 13.8574C57.1074 14.0592 57.3223 14.222 57.459 14.3457C57.6022 14.4629 57.752 14.6289 57.9082 14.8438C57.9082 15.1953 57.8594 15.6803 57.7617 16.2988C57.6706 16.9108 57.5534 17.4805 57.4102 18.0078C57.2669 18.5352 57.1302 18.8737 57 19.0234C56.7852 19.1341 56.4368 19.1895 55.9551 19.1895C55.7207 19.1895 55.4993 19.1732 55.291 19.1406C55.0892 19.1016 54.9362 19.0527 54.832 18.9941L54.627 17.1875C54.5293 17.0768 54.3047 16.9889 53.9531 16.9238C53.6081 16.8522 53.2891 16.8164 52.9961 16.8164C52.9049 16.8164 52.8203 16.8229 52.7422 16.8359C52.5924 17.1419 52.4785 17.5326 52.4004 18.0078C52.3223 18.4831 52.2832 18.9681 52.2832 19.4629C52.2832 20.179 52.4004 20.7878 52.6348 21.2891C52.8691 21.7839 53.3477 22.0312 54.0703 22.0312C54.4284 22.0312 54.7799 21.9727 55.125 21.8555C55.4766 21.7383 55.9193 21.5592 56.4531 21.3184C56.6745 21.2142 56.8405 21.1393 56.9512 21.0938C57.2116 21.3542 57.4167 21.6276 57.5664 21.9141C57.7161 22.2005 57.8138 22.5684 57.8594 23.0176C57.4427 23.5059 56.8568 23.9909 56.1016 24.4727C55.3529 24.9544 54.4772 25.1953 53.4746 25.1953C52.4069 25.1953 51.4922 24.9382 50.7305 24.4238C49.9753 23.903 49.4023 23.1999 49.0117 22.3145C48.6276 21.4225 48.4355 20.4264 48.4355 19.3262ZM60.0762 22.3828C60.0762 22.1029 60.0827 21.416 60.0957 20.3223C60.1152 18.1738 60.125 16.9987 60.125 16.7969L59.2266 16.6504C59.1029 16.2793 59.015 15.931 58.9629 15.6055C58.9108 15.2799 58.8848 14.9512 58.8848 14.6191C58.8848 14.4824 58.888 14.3783 58.8945 14.3066C59.0052 14.209 59.1777 14.0918 59.4121 13.9551C59.6465 13.8184 59.9232 13.6979 60.2422 13.5938C60.5612 13.4831 60.8867 13.4277 61.2188 13.4277C61.9935 13.4277 62.5534 13.6003 62.8984 13.9453C63.25 14.2904 63.4258 14.7949 63.4258 15.459C63.4258 15.8626 63.3737 16.3802 63.2695 17.0117C63.1719 17.6367 63.071 18.0827 62.9668 18.3496L63.3184 18.4082L63.9043 16.2012C64.1647 15.2051 64.4902 14.4954 64.8809 14.0723C65.2715 13.6426 65.7109 13.4277 66.1992 13.4277C66.5182 13.4277 66.834 13.4766 67.1465 13.5742C67.4655 13.6719 67.7096 13.7923 67.8789 13.9355C68.0612 14.3392 68.1523 14.8763 68.1523 15.5469C68.1523 16.0156 68.1068 16.4811 68.0156 16.9434C67.9245 17.3991 67.8073 17.7669 67.6641 18.0469L65.6133 17.7734C65.1966 18.2161 64.7539 18.8314 64.2852 19.6191C63.8164 20.4004 63.4421 21.1198 63.1621 21.7773L63.1523 22.2852L65.0469 21.8359C65.3659 22.3242 65.5514 22.9036 65.6035 23.5742C65.6035 23.6133 65.457 23.7728 65.1641 24.0527C64.8711 24.3327 64.4837 24.5931 64.002 24.834C63.5267 25.0684 62.9798 25.1855 62.3613 25.1855C61.7233 25.1855 61.1895 25.0163 60.7598 24.6777C60.3366 24.3327 60.112 23.7533 60.0859 22.9395C60.0794 22.8418 60.0762 22.6562 60.0762 22.3828ZM68.8652 19.2285C68.8652 18.0501 69.054 17.028 69.4316 16.1621C69.8092 15.2962 70.3887 14.6257 71.1699 14.1504C71.9512 13.6686 72.931 13.4277 74.1094 13.4277C75.4115 13.4277 76.4336 13.6719 77.1758 14.1602C77.918 14.6419 78.4355 15.3125 78.7285 16.1719C79.028 17.0312 79.1777 18.0827 79.1777 19.3262C79.1777 20.4525 78.9792 21.4583 78.582 22.3438C78.1914 23.2227 77.599 23.9193 76.8047 24.4336C76.0169 24.9414 75.0501 25.1953 73.9043 25.1953C72.1335 25.1953 70.8509 24.6517 70.0566 23.5645C69.2624 22.4707 68.8652 21.0254 68.8652 19.2285ZM74.3047 22.334C74.6367 22.334 74.8385 22.3079 74.9102 22.2559C75.0599 21.9954 75.1738 21.6276 75.252 21.1523C75.3301 20.6771 75.3691 20.1628 75.3691 19.6094C75.3691 19.1016 75.3366 18.6263 75.2715 18.1836C75.2064 17.7344 75.1152 17.3828 74.998 17.1289C74.9264 17.0443 74.7832 16.9824 74.5684 16.9434C74.3535 16.8978 74.1191 16.875 73.8652 16.875C73.5332 16.875 73.3053 16.9108 73.1816 16.9824C72.8561 17.5423 72.6934 18.3203 72.6934 19.3164C72.6934 19.7852 72.7292 20.2637 72.8008 20.752C72.8724 21.2402 72.9635 21.6829 73.0742 22.0801C73.1523 22.1647 73.3118 22.2298 73.5527 22.2754C73.7936 22.3145 74.0443 22.334 74.3047 22.334ZM80.2324 12.2266C80.1348 11.8294 80.0697 11.5007 80.0371 11.2402C80.0046 10.9733 79.9915 10.6673 79.998 10.3223C80.1348 10.1465 80.3464 9.9707 80.6328 9.79492C80.9258 9.61263 81.2643 9.45964 81.6484 9.33594C82.0391 9.21224 82.4427 9.15039 82.8594 9.15039C83.6732 9.15039 84.2982 9.35547 84.7344 9.76562C85.1706 10.1758 85.3887 10.7812 85.3887 11.582C85.3887 12.1549 85.3398 13.0762 85.2422 14.3457C85.1445 15.6152 85.0046 16.9661 84.8223 18.3984C84.64 19.8242 84.4316 21.071 84.1973 22.1387L84.2168 22.1582L85.6621 21.5527C86.1699 21.9889 86.4661 22.5684 86.5508 23.291C86.5508 23.3366 86.4043 23.5254 86.1113 23.8574C85.8184 24.1829 85.431 24.4889 84.9492 24.7754C84.474 25.0553 83.9271 25.1953 83.3086 25.1953C82.6641 25.1953 82.14 25.0163 81.7363 24.6582C81.3392 24.3001 81.1504 23.6882 81.1699 22.8223L81.1895 21.0645C81.196 19.3978 81.2122 17.8971 81.2383 16.5625C81.2708 15.2279 81.3359 13.8509 81.4336 12.4316L80.2324 12.2266ZM87.0879 12.2266C86.9902 11.8294 86.9251 11.5007 86.8926 11.2402C86.86 10.9733 86.847 10.6673 86.8535 10.3223C86.9902 10.1465 87.2018 9.9707 87.4883 9.79492C87.7812 9.61263 88.1198 9.45964 88.5039 9.33594C88.8945 9.21224 89.2982 9.15039 89.7148 9.15039C90.5286 9.15039 91.1536 9.35547 91.5898 9.76562C92.026 10.1758 92.2441 10.7812 92.2441 11.582C92.2441 12.1549 92.1953 13.0762 92.0977 14.3457C92 15.6152 91.86 16.9661 91.6777 18.3984C91.4954 19.8242 91.2871 21.071 91.0527 22.1387L91.0723 22.1582L92.5176 21.5527C93.0254 21.9889 93.3216 22.5684 93.4062 23.291C93.4062 23.3366 93.2598 23.5254 92.9668 23.8574C92.6738 24.1829 92.2865 24.4889 91.8047 24.7754C91.3294 25.0553 90.7826 25.1953 90.1641 25.1953C89.5195 25.1953 88.9954 25.0163 88.5918 24.6582C88.1947 24.3001 88.0059 23.6882 88.0254 22.8223L88.0449 21.0645C88.0514 19.3978 88.0677 17.8971 88.0938 16.5625C88.1263 15.2279 88.1914 13.8509 88.2891 12.4316L87.0879 12.2266ZM96.3457 20.8008C95.877 18.8672 95.4635 17.2493 95.1055 15.9473C94.7474 14.6387 94.4609 13.8249 94.2461 13.5059L93.2695 13.4375C93.0807 12.9427 92.9473 12.334 92.8691 11.6113C92.9798 11.2533 93.1882 10.944 93.4941 10.6836C93.8001 10.4167 94.1582 10.2148 94.5684 10.0781C94.9785 9.94141 95.3919 9.87305 95.8086 9.87305C96.7591 9.87305 97.4688 10.3092 97.9375 11.1816C98.1523 11.5788 98.3346 12.0573 98.4844 12.6172C98.6341 13.1706 98.7741 13.8281 98.9043 14.5898C99.1191 15.8724 99.2689 17.0247 99.3535 18.0469C99.4382 19.0625 99.5065 20.1432 99.5586 21.2891L99.5977 22.168H99.7441C99.9069 21.8099 100.086 21.0384 100.281 19.8535C100.477 18.6686 100.646 17.4154 100.789 16.0938C100.932 14.7656 101.01 13.7793 101.023 13.1348L99.793 12.9492C99.7018 12.6042 99.6432 12.2949 99.6172 12.0215C99.5911 11.748 99.5781 11.416 99.5781 11.0254C99.7148 10.8561 99.9427 10.6803 100.262 10.498C100.581 10.3158 100.952 10.1628 101.375 10.0391C101.798 9.91536 102.218 9.85352 102.635 9.85352C103.195 9.85352 103.699 9.94792 104.148 10.1367C104.604 10.319 104.965 10.5924 105.232 10.957C105.506 11.3216 105.646 11.7676 105.652 12.2949V13.7988C105.945 14.9382 106.199 16.276 106.414 17.8125C106.635 19.3424 106.798 20.791 106.902 22.1582H107.01C107.166 21.7936 107.342 21.0189 107.537 19.834C107.739 18.6426 107.915 17.3893 108.064 16.0742C108.214 14.7526 108.292 13.7728 108.299 13.1348L107.146 12.9492C107.055 12.6042 106.997 12.2949 106.971 12.0215C106.945 11.748 106.932 11.416 106.932 11.0254C107.062 10.8561 107.29 10.6803 107.615 10.498C107.941 10.3158 108.315 10.1628 108.738 10.0391C109.168 9.91536 109.591 9.85352 110.008 9.85352C110.861 9.85352 111.499 10.0749 111.922 10.5176C112.345 10.9603 112.557 11.6341 112.557 12.5391C112.557 13.3984 112.413 14.5052 112.127 15.8594C111.84 17.2135 111.482 18.4863 111.053 19.6777C110.682 20.7194 110.317 21.6211 109.959 22.3828C109.601 23.138 109.158 23.8802 108.631 24.6094C108.416 24.8307 108.133 24.9837 107.781 25.0684C107.436 25.153 107.078 25.1953 106.707 25.1953C105.424 25.1953 104.477 24.9479 103.865 24.4531L104.129 22.4512L103.494 19.1602C103.344 18.2943 103.247 17.6042 103.201 17.0898L103.074 17.0801L103.045 18.3203C102.83 19.5964 102.566 20.7812 102.254 21.875C101.948 22.9622 101.596 23.8737 101.199 24.6094C101.01 24.8242 100.75 24.974 100.418 25.0586C100.086 25.1497 99.7474 25.1953 99.4023 25.1953C98.0677 25.1953 97.127 24.9512 96.5801 24.4629L96.7949 22.627L96.3457 20.8008ZM116.561 18.5645C116.945 18.5645 117.368 18.6035 117.83 18.6816C118.299 18.7598 118.729 18.8542 119.119 18.9648V18.6621C119.119 18.4603 119.113 18.2357 119.1 17.9883C119.093 17.7409 119.08 17.5781 119.061 17.5C119.002 17.3893 118.833 17.2754 118.553 17.1582C118.279 17.041 117.83 16.9824 117.205 16.9824C116.821 16.9824 116.424 17.0312 116.014 17.1289C115.61 17.2201 115.161 17.3438 114.666 17.5C114.399 17.0573 114.184 16.6374 114.021 16.2402C113.865 15.8366 113.787 15.4329 113.787 15.0293C113.787 14.9056 113.797 14.7819 113.816 14.6582C114.871 13.8379 116.235 13.4277 117.908 13.4277C118.833 13.4277 119.653 13.5319 120.369 13.7402C121.085 13.9486 121.674 14.3522 122.137 14.9512C122.599 15.5501 122.83 16.3997 122.83 17.5C122.83 18.5742 122.703 19.6159 122.449 20.625C122.202 21.6276 122.075 22.1387 122.068 22.1582L123.484 21.5527C123.673 21.7546 123.839 22.002 123.982 22.2949C124.132 22.5814 124.227 22.9134 124.266 23.291C124.174 23.4863 123.976 23.737 123.67 24.043C123.364 24.3424 122.99 24.6094 122.547 24.8438C122.104 25.0781 121.642 25.1953 121.16 25.1953C120.62 25.1953 120.21 25.0358 119.93 24.7168C119.656 24.3978 119.52 23.9844 119.52 23.4766C119.52 23.1901 119.562 22.9004 119.646 22.6074L119.354 22.5195C119.171 23.5482 118.784 24.2513 118.191 24.6289C117.599 25.0065 116.945 25.1953 116.229 25.1953C115.76 25.1953 115.307 25.0651 114.871 24.8047C114.435 24.5378 114.08 24.1536 113.807 23.6523C113.533 23.1445 113.396 22.5521 113.396 21.875C113.396 20.7943 113.667 19.974 114.207 19.4141C114.747 18.8477 115.532 18.5645 116.561 18.5645ZM117.674 22.2852C117.837 22.2526 118.029 22.1615 118.25 22.0117C118.478 21.862 118.68 21.6829 118.855 21.4746C119.031 21.2663 119.135 21.0677 119.168 20.8789L119.109 20.6445C118.764 20.599 118.396 20.5762 118.006 20.5762C117.674 20.5762 117.446 20.6022 117.322 20.6543C117.114 20.8887 117.01 21.1491 117.01 21.4355C117.01 21.6439 117.062 21.8327 117.166 22.002C117.277 22.1712 117.446 22.2656 117.674 22.2852ZM124.49 17.1191C124.393 16.8392 124.314 16.5169 124.256 16.1523C124.197 15.7878 124.168 15.4329 124.168 15.0879C124.337 14.6061 124.63 14.2057 125.047 13.8867C125.47 13.5677 125.988 13.4082 126.6 13.4082C127.186 13.4082 127.658 13.5938 128.016 13.9648C128.38 14.3294 128.702 14.9023 128.982 15.6836C129.275 16.5039 129.513 17.474 129.695 18.5938C129.878 19.7135 130.005 20.9212 130.076 22.2168L130.359 22.2266C130.646 21.6536 130.893 20.8366 131.102 19.7754C131.31 18.7077 131.417 17.6953 131.424 16.7383L130.203 16.5234C130.118 16.2044 130.06 15.9245 130.027 15.6836C129.995 15.4362 129.979 15.166 129.979 14.873L129.988 14.5996C130.105 14.4303 130.301 14.2546 130.574 14.0723C130.848 13.89 131.173 13.737 131.551 13.6133C131.935 13.4896 132.335 13.4277 132.752 13.4277C134.432 13.4277 135.271 14.2708 135.271 15.957C135.271 16.9596 135.092 18.0339 134.734 19.1797C134.376 20.319 133.859 21.4062 133.182 22.4414C132.511 23.4766 131.72 24.3294 130.809 25C130.49 25.1302 130.057 25.1953 129.51 25.1953C129.217 25.1953 128.888 25.1302 128.523 25C128.159 24.8763 127.889 24.7461 127.713 24.6094L127.508 23.9258C127.039 22.3372 126.616 20.9701 126.238 19.8242C125.861 18.6719 125.516 17.8158 125.203 17.2559L124.49 17.1191ZM136.268 19.3262C136.268 18.1999 136.456 17.194 136.834 16.3086C137.212 15.4232 137.794 14.7233 138.582 14.209C139.376 13.6882 140.366 13.4277 141.551 13.4277C142.169 13.4277 142.788 13.5026 143.406 13.6523C144.025 13.7956 144.549 14.0365 144.979 14.375C145.376 14.694 145.662 15.1172 145.838 15.6445C146.02 16.1654 146.111 16.7448 146.111 17.3828C146.111 17.806 146.076 18.2389 146.004 18.6816C145.926 18.8118 145.773 18.9844 145.545 19.1992C145.317 19.4076 145.05 19.6126 144.744 19.8145C144.438 20.0163 144.142 20.1725 143.855 20.2832C143.582 20.3027 143.299 20.3125 143.006 20.3125C142.492 20.3125 141.971 20.2897 141.443 20.2441C140.916 20.1986 140.454 20.1465 140.057 20.0879C140.109 20.6413 140.278 21.123 140.564 21.5332C140.851 21.9434 141.307 22.1484 141.932 22.1484C141.99 22.1484 142.085 22.1419 142.215 22.1289C142.612 22.0898 143.074 21.9857 143.602 21.8164C144.135 21.6406 144.666 21.4388 145.193 21.2109C145.441 21.4583 145.623 21.7057 145.74 21.9531C145.857 22.2005 145.939 22.5553 145.984 23.0176C145.783 23.252 145.454 23.5384 144.998 23.877C144.549 24.2155 143.999 24.5215 143.348 24.7949C142.697 25.0618 142.016 25.1953 141.307 25.1953C140.239 25.1953 139.324 24.9382 138.562 24.4238C137.807 23.903 137.234 23.1999 136.844 22.3145C136.46 21.4225 136.268 20.4264 136.268 19.3262ZM142.557 17.0801C142.465 16.9824 142.312 16.9076 142.098 16.8555C141.883 16.7969 141.658 16.7676 141.424 16.7676C141.235 16.7676 141.043 16.7839 140.848 16.8164C140.659 16.849 140.545 16.8848 140.506 16.9238C140.285 17.36 140.145 17.8548 140.086 18.4082L142.693 18.1543L142.557 17.0801Z" fill="white"/>
</g>
</g>
<defs>
<filter id="filter0_d_71_401" x="33.3906" y="9.15039" width="116.721" height="24.0449" filterUnits="userSpaceOnUse" color-interpolation-filters="sRGB">
<feFlood flood-opacity="0" result="BackgroundImageFix"/>
<feColorMatrix in="SourceAlpha" type="matrix" values="0 0 0 0 0 0 0 0 0 0 0 0 0 0 0 0 0 0 127 0" result="hardAlpha"/>
<feOffset dy="4"/>
<feGaussianBlur stdDeviation="2"/>
<feComposite in2="hardAlpha" operator="out"/>
<feColorMatrix type="matrix" values="0 0 0 0 0 0 0 0 0 0 0 0 0 0 0 0 0 0 0.25 0"/>
<feBlend mode="normal" in2="BackgroundImageFix" result="effect1_dropShadow_71_401"/>
<feBlend mode="normal" in="SourceGraphic" in2="effect1_dropShadow_71_401" result="shape"/>
</filter>
<linearGradient id="paint0_linear_71_401" x1="15" y1="3" x2="15" y2="33" gradientUnits="userSpaceOnUse">
<stop stop-color="#877EFF"/>
<stop offset="0.461458" stop-color="#685DFF"/>
<stop offset="1" stop-color="#3121FF"/>
</linearGradient>
<clipPath id="clip0_71_401">
<rect width="171" height="36" fill="white"/>
</clipPath>
</defs>
</svg>
